<?xml version="1.0" encoding="utf-8"?>
<!-- Svg Vector Icons : http://www.onlinewebfonts.com/icon -->
<!DOCTYPE svg PUBLIC "-//W3C//DTD SVG 1.1//EN" "http://www.w3.org/Graphics/SVG/1.1/DTD/svg11.dtd">
<svg version="1.1" xmlns="http://www.w3.org/2000/svg" xmlns:xlink="http://www.w3.org/1999/xlink" x="0px" y="0px" viewBox="0 0 1000 1000" enable-background="new 0 0 1000 1000" xml:space="preserve">
<metadata> Svg Vector Icons : http://www.onlinewebfonts.com/icon </metadata>
<g><g transform="translate(0.000000,512.000000) scale(0.100000,-0.100000)"><path d="M1515.2,4990.5c-300.6-80.4-551.4-363.8-589.7-668.2l-13.4-114.9l-114.9-13.4c-225.9-28.7-469.1-193.4-589.7-398.2c-273.8-469.1,0-1077.9,539.9-1206.2c195.3-45.9,474.8,9.6,628,126.4c32.5,24.9,67,46,76.6,46c7.7,0,181.9-166.6,388.7-371.4c392.5-392.5,440.4-425,534.2-373.3c61.3,34.5,105.3,120.6,90,176.1c-5.8,23-225.9,256.6-488.2,518.9c-467.2,467.2-478.6,476.7-541.8,463.3c-40.2-7.7-91.9-42.1-139.8-95.7c-116.8-124.4-222.1-172.3-382.9-172.3c-149.3,0-225.9,28.7-331.2,130.2c-247,229.8-183.8,639.5,120.6,786.9c101.5,49.8,114.9,51.7,289.1,40.2c176.1-13.4,185.7-11.5,231.7,30.6c45.9,42.1,45.9,47.9,32.5,229.7c-11.5,178.1-9.6,191.5,40.2,292.9c147.4,304.4,557.1,367.6,786.9,120.6c101.5-105.3,130.2-181.9,130.2-331.2c0-160.8-47.9-266.1-172.3-382.9c-53.6-47.9-88.1-99.6-95.7-139.8c-13.4-63.2-3.8-74.7,463.3-541.8c262.3-262.3,495.9-482.5,518.9-488.2c55.5-15.3,141.7,28.7,176.1,90c51.7,93.8,19.1,141.7-373.3,534.2c-204.9,206.8-371.4,381-371.4,388.7c0,9.6,21.1,44,45.9,76.6c116.8,153.2,172.3,432.7,126.4,628C2420.8,4831.6,1963.2,5111.2,1515.2,4990.5z"/><path d="M8074.6,5000.1c-124.5-28.7-292.9-132.1-394.4-239.3c-283.4-300.6-304.4-708.4-53.6-1064.5c21.1-28.7-23-80.4-352.3-411.6c-396.3-398.2-428.9-446.1-377.2-539.9c34.5-61.3,120.6-105.3,176.2-90c23,5.8,256.6,225.9,518.9,488.2c465.2,467.2,476.7,478.6,463.3,541.8c-7.6,40.2-45.9,93.8-103.4,149.3c-126.4,120.6-166.6,208.7-164.7,373.3c0,197.2,93.8,346.5,275.7,442.3c93.8,49.8,308.2,47.9,409.7-1.9c101.5-49.8,199.1-151.3,245.1-254.6c34.5-74.7,36.4-111.1,26.8-270c-13.4-178.1-13.4-185.7,32.6-227.8c46-42.1,57.4-44,227.8-30.6c157,11.5,191.5,7.7,268-24.9c187.6-84.2,292.9-245.1,291-455.7c0-153.2-38.3-247-145.5-346.5c-105.3-101.5-181.9-130.2-331.2-130.2c-160.8,0-266.1,47.9-382.9,172.3c-47.9,53.6-99.6,88.1-139.8,95.7c-63.2,13.4-74.7,3.8-541.8-463.3c-262.3-262.3-482.5-495.9-488.2-518.9c-15.3-55.5,28.7-141.7,90-176.1c93.8-51.7,141.7-19.1,539.9,377.2c331.2,329.3,382.9,373.3,411.6,352.3c369.5-260.4,800.3-227.8,1093.2,82.3c314,331.2,306.3,815.6-17.2,1139.2c-111,113-300.6,206.8-449.9,225.9l-114.9,13.4l-13.4,114.9c-28.7,225.9-193.4,469.1-398.2,589.7C8511.1,5007.8,8264.1,5044.1,8074.6,5000.1z"/><path d="M4745.1,3047.2c-681.6-59.4-1336.4-365.7-1822.7-850.1c-398.2-398.2-693.1-943.9-802.2-1485.7c-51.7-248.9-72.8-576.3-49.8-760.1c34.5-266.1,103.4-442.3,258.5-643.3c65.1-86.2,68.9-101.5,147.4-572.5c68.9-411.6,86.2-488.2,124.4-524.6c40.2-42.1,53.6-44.1,405.9-44.1c199.1,0,384.8-7.6,411.6-19.1c26.8-9.6,61.3-44,76.6-74.7c17.2-30.6,68.9-296.8,118.7-589.7c78.5-474.8,91.9-538,134-580.1l45.9-47.9h557.1h557.1l45.9,53.6c59.4,70.8,59.4,155.1-1.9,214.4c-38.3,40.2-65.1,47.9-162.7,47.9h-114.9v270c0,155.1-9.6,285.3-21.1,308.3c-28.7,55.5-137.8,95.7-197.2,74.7c-93.8-36.4-107.2-84.2-107.2-381v-273.8l-176.1,5.8l-178.1,5.7l-78.5,459.5c-90,532.3-99.6,570.6-191.5,677.8c-122.5,143.6-181.9,160.8-553.3,174.2l-323.6,9.6l-63.2,373.3c-32.5,204.9-67,400.2-72.8,432.7c-5.7,32.6-51.7,111-101.5,172.3C2428.5-291.8,2369.1-64,2397.8,311.3c26.8,371.4,116.8,685.4,287.2,1012.8c134,256.6,283.4,453.8,503.5,668.2c501.6,486.3,1112.4,735.2,1811.2,735.2c538,0,999.4-139.8,1455.1-440.4c202.9-134,513.1-432.7,656.7-633.7c317.8-440.4,492.1-963,494-1491.5c1.9-315.9-55.5-497.8-224-693.1c-46-53.6-88.1-124.5-93.8-158.9c-5.7-34.5-40.2-229.7-72.8-434.6l-63.2-373.3l-314-9.6c-352.3-11.5-446.1-38.3-545.7-157c-101.5-120.6-126.3-204.9-208.7-683.5l-78.5-471l-176.2-5.7l-178-5.8v277.6c0,264.2-1.9,279.5-46,329.3c-61.3,72.8-172.3,72.8-235.5-1.9c-42.1-47.9-44-61.3-44-430.8c0-375.2,0-381,46-434.6l46-53.6h394.4H6206l46,47.9c40.2,42.1,55.5,109.2,135.9,582c47.9,294.9,101.5,559.1,114.9,585.9c44,86.2,97.6,95.7,490.1,95.7c352.3,0,365.7,1.9,405.9,44.1c38.3,36.4,55.5,113,124.5,524.6c78.5,471,82.3,486.3,147.4,572.5c220.2,287.2,294.9,582,258.5,1024.3c-23,281.4-61.3,467.2-143.6,718c-287.2,867.3-987.9,1568-1855.2,1855.2c-245.1,82.3-428.9,118.7-702.7,143.6C4990.2,3070.2,4990.2,3070.2,4745.1,3047.2z"/><path d="M3841.4,751.6c-187.6-57.4-379.1-241.2-440.4-419.3c-42.1-122.5-36.4-323.6,9.6-449.9c49.8-132.1,183.8-275.7,325.5-348.5c91.9-47.9,126.4-55.5,277.6-55.5c145.5,0,187.6,7.7,277.6,49.8c132.1,63.2,254.6,185.7,321.6,323.6c44,90,51.7,130.2,51.7,268.1c0,139.8-7.7,178.1-53.6,271.9c-113,231.7-314,361.9-568.6,371.4C3964,767,3874,761.2,3841.4,751.6z M4143.9,418.5c34.5-13.4,88.1-55.5,122.5-93.8c227.8-260.4-84.2-651-396.3-492.1c-116.8,59.4-162.7,139.8-162.7,287.2c0,99.6,9.6,137.9,44,187.6C3839.5,428.1,4006.1,475.9,4143.9,418.5z"/><path d="M5794.3,745.9c-185.7-63.2-319.7-180-405.9-354.2c-46-93.8-53.6-132.1-53.6-271.9s7.6-178.1,53.6-271.9c67-137.9,185.7-256.6,319.7-319.7c88.1-42.1,132.1-49.8,277.6-49.8c160.8,0,181.9,3.8,292.9,65.1c134,72.8,229.7,172.3,294.8,306.3c36.4,72.8,44,120.6,44,270c0,155.1-7.7,197.2-47.9,277.6c-59.4,122.5-195.3,256.6-315.9,314C6137,767,5911.1,784.2,5794.3,745.9z M6129.4,407c105.3-53.6,158.9-137.9,168.5-266.1c19.1-306.3-327.4-461.4-543.8-243.2c-128.3,128.3-137.8,294.9-21.1,427C5840.3,447.2,5989.6,477.9,6129.4,407z"/><path d="M4816-739.8c-166.6-76.6-296.8-317.8-302.5-566.7c-1.9-84.2,5.7-111,44-151.2l45.9-49.8h394.4c415.5,1.9,432.7,3.9,478.6,91.9c53.6,99.6-49.8,459.5-166.6,585.9C5195.1-707.3,4976.8-667.1,4816-739.8z M5095.5-1090.2c21.1-34.5,38.3-68.9,38.3-76.6c0-9.6-59.4-15.3-134-15.3c-72.7,0-134,5.8-134,15.3c0,7.7,17.2,42.1,38.3,76.6c28.7,47.9,51.7,61.3,95.7,61.3C5043.8-1028.9,5066.8-1042.3,5095.5-1090.2z"/><path d="M2166.2-1854.1c-26.8-9.6-197.2-166.6-379.1-348.4c-289.1-289.1-333.1-325.5-363.8-306.3c-281.4,199.1-578.2,231.7-855.8,93.8c-515-254.6-624.2-911.3-220.2-1313.4c111-113,300.6-206.7,449.9-225.9l114.9-13.4l13.4-114.9c9.6-65.1,42.1-168.5,76.6-239.3c250.8-511.2,924.7-614.6,1315.3-201c287.2,304.4,308.3,706.5,53.6,1066.4c-19.1,30.6,38.3,95.7,478.6,536.1c310.2,312.1,505.4,522.7,513.1,553.3c26.8,112.9-103.4,231.7-206.8,189.5c-23-7.7-308.3-283.3-633.7-608.8c-582-583.9-591.6-595.5-578.2-658.6c7.7-40.2,42.1-91.9,95.7-139.8c126.4-116.8,172.3-222.1,172.3-382.9c0-153.2-38.3-247-145.5-346.5c-105.3-101.5-181.9-130.2-331.2-132.1c-210.6,0-371.4,105.3-455.7,292.9c-32.5,76.6-36.4,111-24.9,268c13.4,170.4,11.5,181.9-30.6,227.9c-42.1,45.9-49.8,45.9-227.8,32.5c-158.9-9.6-195.3-7.7-270,26.8c-103.4,46-204.9,143.6-254.6,245c-49.8,101.5-51.7,315.9-1.9,409.7c95.7,181.9,245.1,275.7,442.3,275.7c164.7,1.9,252.7-38.3,373.3-164.6c55.5-57.4,109.1-95.7,149.3-103.4c61.3-13.4,74.7-1.9,503.5,425c417.4,415.5,438.4,440.4,438.4,509.3c0,68.9-49.8,149.3-93.8,149.3c-9.6,0-28.7,3.8-44,7.7C2225.5-1838.8,2193-1844.5,2166.2-1854.1z"/><path d="M7707-1859.9c-67-28.7-84.2-61.3-84.2-153.2c0-53.6,49.8-109.1,438.4-497.8c428.9-427,442.3-438.4,503.5-425c40.2,7.7,93.8,46,149.3,103.4c120.6,126.4,208.7,166.6,373.3,164.6c153.2,0,247-38.3,346.5-145.5c101.5-105.3,130.2-181.9,132.1-331.2c0-113-9.6-149.3-55.5-235.5c-63.2-114.9-174.2-204.9-287.2-235.5c-45.9-13.4-141.7-15.3-239.3-7.7c-158.9,11.5-166.5,11.5-208.7-34.4c-44-46-46-57.4-32.6-208.7c7.7-97.6,5.7-189.6-7.7-235.5c-30.6-114.9-120.6-225.9-235.5-289.1c-86.2-46-122.5-55.5-235.5-55.5c-149.3,1.9-225.9,30.6-331.2,132.1c-107.2,99.5-145.5,193.4-145.5,346.5c-1.9,164.6,38.3,252.7,164.7,373.3c57.4,55.5,95.7,109.2,103.4,149.4c13.4,63.2,1.9,74.7-578.2,658.6c-325.5,325.5-610.8,601.2-633.7,608.8c-103.4,42.1-233.6-76.6-206.8-189.5c7.7-30.6,202.9-241.3,513.1-553.3c440.4-440.4,497.8-505.5,478.7-536.1c-193.4-271.9-229.8-568.7-103.4-838.6c247-526.5,915.2-647.1,1323-237.4c113,111.1,206.8,300.6,225.9,449.9l13.4,114.9l114.9,13.4c149.3,19.2,338.9,112.9,449.9,225.9c404,402.1,294.9,1058.8-220.2,1313.4c-277.6,137.9-574.4,105.3-855.8-91.9c-28.7-21.1-76.6,19.2-375.3,315.9c-187.6,185.7-350.4,338.9-361.9,338.9s-32.6,3.8-47.9,9.6C7777.8-1838.8,7739.5-1846.5,7707-1859.9z"/></g></g>
</svg>